<?xml version="1.0" encoding="UTF-8" standalone="no"?>
<svg
   sodipodi:docname="ss14.svg"
   inkscape:version="1.2 (dc2aedaf03, 2022-05-15)"
   id="svg8"
   version="1.1"
   viewBox="0 0 232.83332 79.375003"
   height="300"
   width="880"
   xmlns:inkscape="http://www.inkscape.org/namespaces/inkscape"
   xmlns:sodipodi="http://sodipodi.sourceforge.net/DTD/sodipodi-0.dtd"
   xmlns="http://www.w3.org/2000/svg"
   xmlns:svg="http://www.w3.org/2000/svg"
   xmlns:rdf="http://www.w3.org/1999/02/22-rdf-syntax-ns#"
   xmlns:cc="http://creativecommons.org/ns#"
   xmlns:dc="http://purl.org/dc/elements/1.1/">
  <defs
     id="defs2" />
  <sodipodi:namedview
     inkscape:window-maximized="1"
     inkscape:window-y="-8"
     inkscape:window-x="-8"
     inkscape:window-height="1017"
     inkscape:window-width="1920"
     fit-margin-bottom="60"
     fit-margin-right="100"
     fit-margin-left="100"
     fit-margin-top="60"
     units="px"
     showgrid="false"
     inkscape:document-rotation="0"
     inkscape:current-layer="layer1"
     inkscape:document-units="px"
     inkscape:cy="234.70345"
     inkscape:cx="514.692"
     inkscape:zoom="1.0268277"
     inkscape:pageshadow="2"
     inkscape:pageopacity="0.0"
     borderopacity="1.0"
     bordercolor="#666666"
     pagecolor="#ffffff"
     id="base"
     inkscape:showpageshadow="0"
     inkscape:pagecheckerboard="1"
     inkscape:deskcolor="#d1d1d1" />
  <metadata
     id="metadata5">
    <rdf:RDF>
      <cc:Work
         rdf:about="">
        <dc:format>image/svg+xml</dc:format>
        <dc:type
           rdf:resource="http://purl.org/dc/dcmitype/StillImage" />
      </cc:Work>
    </rdf:RDF>
  </metadata>
  <g
     transform="translate(7.6582463,-76.645126)"
     id="layer1"
     inkscape:groupmode="layer"
     inkscape:label="Layer 1">
    <path
       sodipodi:nodetypes="ccccccc"
       id="path901"
       d="M -7.6582463,76.645126 V 145.43679 L 2.9250869,156.02013 H 225.17508 V 87.228459 L 214.59175,76.645126 Z"
       style="fill:#ff00ff;fill-opacity:1;stroke:none;stroke-width:0.265;stroke-linecap:butt;stroke-linejoin:miter;stroke-miterlimit:4;stroke-dasharray:none;stroke-opacity:1" />
    <path
       sodipodi:nodetypes="ccccc"
       d="m 25.717218,107.08517 -0.273452,1.34584 137.181054,-9.425596 0.2853,-1.36866 z"
       style="fill:#00ff00;fill-opacity:1;fill-rule:nonzero;stroke:none;stroke-width:0.342759"
       id="path204"
       inkscape:connector-curvature="0" />
    <path
       sodipodi:nodetypes="ccccc"
       d="m 19.195554,138.75717 137.106646,-9.42099 0.2853,-1.36865 -137.118189,9.44367 z"
       style="fill:#00ff00;fill-opacity:1;fill-rule:nonzero;stroke:none;stroke-width:0.342759"
       id="path208"
       inkscape:connector-curvature="0" />
    <g
       transform="matrix(1,-0.06861153,-0.20845555,1,-10.124042,-33.68114)"
       id="g4517"
       style="fill:#00ff00">
      <path
         inkscape:connector-curvature="0"
         id="path148"
         style="fill:#00ff00;fill-opacity:1;fill-rule:nonzero;stroke:none;stroke-width:0.345236"
         d="m 209.28965,147.21125 0.002,-0.69222 5.06758,-0.007 -0.0275,29.33003 -0.68193,8.3e-4 0.0259,-28.63743 z m 7.68381,31.24867 0.007,-34.57225 -10.28101,0.0134 -0.009,6.03432 4.38533,-0.006 0.003,28.53864 z" />
      <path
         sodipodi:nodetypes="cccccccccccccccccccccc"
         inkscape:connector-curvature="0"
         id="path152"
         style="fill:#00ff00;fill-opacity:1;fill-rule:nonzero;stroke:none;stroke-width:0.345236"
         d="m 234.5791,146.48498 -0.0154,16.64984 4.72271,-1e-5 3.7e-4,0.74326 h -4.7238 l -0.0109,11.93676 -0.74321,2.6e-4 0.0126,-11.93699 -11.20922,0.007 z m -14.53922,20.02441 11.20914,-0.007 v 11.93823 l 5.8959,-0.008 0.002,-11.9308 h 4.75754 l 1e-5,-5.99209 h -4.75663 l 0.003,-16.64923 -4.49017,0.0228 -12.61421,18.46247 z" />
      <path
         sodipodi:nodetypes="cccccccc"
         inkscape:connector-curvature="0"
         id="path1772"
         d="m 233.82149,149.12308 -9.77187,14.01173 h 9.77187 z m -2.22595,7.02077 1e-5,4.86552 h -3.46516 z"
         style="fill:#00ff00;fill-opacity:1;stroke:none;stroke-width:0.260799px;stroke-linecap:butt;stroke-linejoin:miter;stroke-opacity:1" />
    </g>
    <g
       aria-label="/vg/station"
       transform="rotate(-4.5276449)"
       id="text456"
       style="font-size:22.5778px;line-height:2.93982px;font-family:'Comic Sans MS';-inkscape-font-specification:'Comic Sans MS';text-align:center;letter-spacing:0px;word-spacing:0px;text-anchor:middle;fill:#00ff00;stroke-width:0.264583px">
      <path
         d="m 27.046667,131.64459 q -0.4079,0 -0.716581,-0.2756 -0.308681,-0.27561 -0.308681,-0.68351 0,-0.17639 0.07717,-0.37483 0.859897,-2.37023 3.24115,-6.82405 2.381252,-4.46485 3.252173,-6.8461 1.444185,-3.94671 2.182815,-3.91363 0.407899,0.011 0.71658,0.29765 0.308681,0.27561 0.308681,0.67249 0,0.25355 -0.121267,0.60633 l -1.234724,2.99862 q -0.738629,2.0395 -2.105644,4.70738 l -2.403301,4.56407 -1.995402,4.42075 q -0.297656,0.65043 -0.892969,0.65043 z"
         id="path528" />
      <path
         d="m 43.263437,130.07914 q -0.03307,1.01424 -1.003213,1.01424 -0.804775,0 -1.168578,-0.94809 l -1.68672,-4.47588 -1.962329,-5.06016 q -0.110243,-0.28663 -0.110243,-0.50712 0,-0.45199 0.341754,-0.7717 0.341754,-0.3197 0.793751,-0.3197 0.661459,0 0.948091,0.67248 l 2.800176,7.706 q 0.826824,-1.76389 2.083596,-5.11529 0.297657,-0.88194 0.937067,-2.49149 0.341754,-0.70556 0.97014,-0.70556 0.451997,0 0.793751,0.31971 0.341754,0.3197 0.341754,0.76068 0,0.41892 -1.819012,4.7184 z"
         id="path530" />
      <path
         d="m 58.234458,125.90092 -0.253559,3.70417 q -0.06615,2.20487 -0.451997,3.60496 -0.496094,1.78594 -1.587502,2.63481 -1.322918,1.02526 -3.825438,1.02526 -1.466234,0 -2.458422,-0.19844 -1.389064,-0.27561 -1.389064,-1.14653 0,-0.98116 0.959115,-0.98116 0.396876,0 1.322918,0.18741 0.926043,0.19844 2.050523,0.17639 2.116669,-0.0331 2.921444,-2.05052 0.529167,-1.34497 0.56224,-4.13412 -0.595313,1.10243 -1.422137,1.65365 -0.815799,0.55121 -1.874133,0.55121 -1.995402,0 -3.252174,-1.35599 -1.245748,-1.36701 -1.245748,-3.5388 0,-2.97657 1.70877,-4.79558 1.76389,-1.87414 4.806602,-1.87414 1.025261,0 1.719793,0.26459 0.694532,0.26458 1.058334,0.79375 1.179602,0.0331 1.179602,1.31189 0,0.78273 -0.23151,2.09462 -0.25356,1.52136 -0.297657,2.07257 z m -3.538806,-4.77352 q -2.09462,0 -3.241149,1.44418 -1.025261,1.30087 -1.025261,3.3073 0,1.59852 0.606337,2.4033 0.606338,0.80477 1.819013,0.80477 1.113456,0 2.160766,-1.25677 0.948091,-1.15755 1.080383,-2.29306 0.23151,-1.19062 0.496094,-3.73724 -0.440973,-0.34176 -0.915018,-0.50712 -0.474046,-0.16536 -0.981165,-0.16536 z"
         id="path532" />
      <path
         d="m 61.563802,131.64459 q -0.407899,0 -0.71658,-0.2756 -0.308681,-0.27561 -0.308681,-0.68351 0,-0.17639 0.07717,-0.37483 0.859897,-2.37023 3.241149,-6.82405 2.381253,-4.46485 3.252174,-6.8461 1.444185,-3.94671 2.182814,-3.91363 0.4079,0.011 0.716581,0.29765 0.308681,0.27561 0.308681,0.67249 0,0.25355 -0.121268,0.60633 l -1.234723,2.99862 q -0.738629,2.0395 -2.105645,4.70738 l -2.403301,4.56407 -1.995401,4.42075 q -0.297657,0.65043 -0.89297,0.65043 z"
         id="path534" />
      <path
         d="m 80.139778,122.16368 q -0.606338,0 -0.848873,-0.4079 -0.165364,-0.28663 -0.286632,-1.19063 -0.826823,0.20947 -2.546617,0.77171 -1.774915,0.70555 -1.785939,1.74184 0.330729,0.12127 0.650434,0.17639 2.535593,0.452 3.770317,1.24575 1.796963,1.15755 1.796963,3.35139 0,1.79696 -1.554428,2.71198 -1.289845,0.74965 -3.263198,0.74965 -1.444185,0 -2.756079,-0.48507 -1.697745,-0.61736 -1.697745,-1.71979 0,-0.44097 0.341754,-0.7717 0.352778,-0.33073 0.793751,-0.33073 0.341753,0 0.881945,0.52917 0.264584,0.25356 1.190626,0.41892 0.738629,0.13229 1.245748,0.13229 0.926043,0 1.631599,-0.22048 1.025261,-0.31971 1.025261,-1.01424 0,-1.49931 -2.09462,-2.02848 l -1.146529,-0.25356 q -1.466234,-0.3197 -2.083596,-0.74965 -0.892969,-0.61736 -0.892969,-1.86311 0,-2.30408 2.17179,-3.28524 0.661459,-0.29766 2.116669,-0.70556 1.45521,-0.41893 2.083596,-0.70556 0.451997,-0.19843 0.981164,-0.19843 0.474046,0 0.771702,0.30868 0.308681,0.30868 0.308681,0.80477 0,0.31971 0.132292,0.93707 0.143316,0.61736 0.143316,0.93706 0,0.4961 -0.308681,0.80478 -0.297656,0.30868 -0.771702,0.30868 z"
         id="path536" />
      <path
         d="m 91.064873,121.25969 q -0.23151,0 -0.551215,-0.0221 -0.308681,-0.022 -0.540192,-0.022 -0.253559,0 -1.499307,0.16536 l 0.209462,6.51538 0.01102,0.48507 0.01103,0.56224 q 0.0441,2.41432 -1.157554,2.41432 -0.440972,0 -0.771702,-0.28663 -0.319705,-0.28663 -0.319705,-0.71658 0,-0.41893 0.03307,-1.25677 0.03307,-0.83785 0.03307,-1.25678 l -0.220486,-6.4382 q -0.804776,-0.0331 -2.447399,-0.18741 -0.981164,-0.13229 -0.981164,-1.09141 0,-0.48507 0.297657,-0.80477 0.297656,-0.31971 0.760677,-0.31971 l 2.315107,0.18742 q 0,-0.56224 -0.05512,-1.49931 -0.0441,-0.94809 -0.0441,-1.36702 0,-0.46302 0.319705,-0.76067 0.319706,-0.30869 0.782727,-0.30869 0.992188,0 1.157553,1.62058 0.03307,0.4079 0.03307,0.98116 l -0.02205,0.63941 -0.01102,0.68351 q 1.367015,-0.17639 1.565453,-0.17639 1.146529,0 1.499307,0.11025 0.672483,0.22048 0.672483,1.03628 0,0.48507 -0.30868,0.80478 -0.297657,0.30868 -0.771703,0.30868 z"
         id="path538" />
      <path
         d="m 102.93807,131.38001 q -0.20947,0 -0.76068,-0.48507 -0.4961,-0.452 -0.73863,-0.80478 -1.05833,0.57327 -1.86311,0.8599 -0.804775,0.29766 -1.344967,0.29766 -2.57969,0 -3.759292,-1.45521 -1.113456,-1.36702 -1.113456,-4.18924 0,-2.66789 1.830037,-4.56407 1.841061,-1.89618 4.387678,-1.89618 0.95912,0 2.14974,0.49609 1.49931,0.61736 1.49931,1.48829 0,0.29765 -0.22049,0.52916 -0.11024,0.41893 -0.17639,1.37804 -0.0551,0.95912 -0.0661,2.45842 -0.011,1.36702 0.18741,2.16077 0.11024,0.48507 0.69453,1.94028 0.0772,0.19844 0.25356,0.58429 l 0.0661,0.18741 q 0,0.44098 -0.30868,0.72761 -0.30868,0.28663 -0.71658,0.28663 z m -2.29306,-7.6619 q 0,-0.47405 0.0551,-1.02526 0.0661,-0.56224 0.18741,-1.19063 -0.4079,-0.20946 -0.70555,-0.30868 -0.286635,-0.0992 -0.463024,-0.0992 -1.708769,0 -2.954517,1.40009 -1.234723,1.38906 -1.234723,3.20808 0,1.80798 0.63941,2.71198 0.63941,0.90399 1.918231,0.90399 1.058335,0 1.796964,-0.38585 0.396879,-0.20946 1.113459,-0.83785 -0.35278,-2.92144 -0.35278,-4.37665 z"
         id="path540" />
      <path
         d="m 113.25683,121.25969 q -0.23152,0 -0.55122,-0.0221 -0.30868,-0.022 -0.54019,-0.022 -0.25356,0 -1.49931,0.16536 l 0.20946,6.51538 0.011,0.48507 0.011,0.56224 q 0.0441,2.41432 -1.15755,2.41432 -0.44097,0 -0.7717,-0.28663 -0.31971,-0.28663 -0.31971,-0.71658 0,-0.41893 0.0331,-1.25677 0.0331,-0.83785 0.0331,-1.25678 l -0.22049,-6.4382 q -0.80477,-0.0331 -2.4474,-0.18741 -0.98116,-0.13229 -0.98116,-1.09141 0,-0.48507 0.29765,-0.80477 0.29766,-0.31971 0.76068,-0.31971 l 2.31511,0.18742 q 0,-0.56224 -0.0551,-1.49931 -0.0441,-0.94809 -0.0441,-1.36702 0,-0.46302 0.31971,-0.76067 0.3197,-0.30869 0.78272,-0.30869 0.99219,0 1.15755,1.62058 0.0331,0.4079 0.0331,0.98116 l -0.022,0.63941 -0.011,0.68351 q 1.36702,-0.17639 1.56546,-0.17639 1.14653,0 1.4993,0.11025 0.67249,0.22048 0.67249,1.03628 0,0.48507 -0.30868,0.80478 -0.29766,0.30868 -0.7717,0.30868 z"
         id="path542" />
      <path
         d="m 118.62567,116.69562 q -0.52917,0 -0.91502,-0.37483 -0.38585,-0.37482 -0.38585,-0.90399 0,-0.52917 0.38585,-0.90399 0.38585,-0.37483 0.91502,-0.37483 0.52916,0 0.90399,0.37483 0.38585,0.37482 0.38585,0.90399 0,0.52917 -0.38585,0.90399 -0.37483,0.37483 -0.90399,0.37483 z m 0.49609,8.95174 q 0,0.66146 0.0331,1.98438 0.0441,1.3119 0.0441,1.97335 0,0.48507 -0.29765,0.79376 -0.29766,0.30868 -0.78273,0.30868 -0.47405,0 -0.78273,-0.30868 -0.29765,-0.30869 -0.29765,-0.79376 0,-0.66145 -0.0441,-1.97335 -0.0331,-1.32292 -0.0331,-1.98438 0,-1.03628 0.11024,-2.57969 0.11024,-1.55442 0.11024,-2.59071 0,-0.49609 0.29766,-0.80477 0.30868,-0.30869 0.78273,-0.30869 0.47404,0 0.7717,0.30869 0.30868,0.30868 0.30868,0.80477 0,1.03629 -0.11024,2.59071 -0.11025,1.54341 -0.11025,2.57969 z"
         id="path544" />
      <path
         d="m 126.9821,131.30284 q -1.85209,0 -3.18603,-1.36702 -1.48828,-1.52135 -1.56545,-4.09002 -0.0662,-2.49149 1.25677,-4.38768 1.54341,-2.23793 4.29948,-2.23793 2.20487,0 3.34037,2.01745 0.904,1.6316 0.87092,3.92466 -0.0331,2.44739 -1.27882,4.17821 -1.41111,1.96233 -3.73724,1.96233 z m 0.66146,-9.84472 q -1.62058,-0.011 -2.52457,1.54341 -0.71658,1.24575 -0.71658,2.84427 0,1.59853 0.87092,2.4915 0.7276,0.73863 1.70877,0.73863 1.14653,0 1.97335,-0.83785 0.93707,-0.92604 0.99219,-2.50252 0.15434,-4.26641 -2.30408,-4.27744 z"
         id="path546" />
      <path
         d="m 143.17682,131.43513 q -0.94809,0 -1.06936,-1.03628 l -0.30868,-2.41433 q -0.15434,-1.28984 -0.15434,-2.41433 0,-0.30868 0.0331,-1.04731 0.0441,-0.73862 0.0441,-1.04731 0,-2.38125 -0.88194,-2.38125 -1.23473,0 -2.35921,1.46624 -1.01423,1.33394 -1.5875,3.37344 -0.022,0.42995 -0.0992,1.08038 -0.0661,0.55122 -0.0661,1.06936 0,0.33073 0.0661,0.99219 0.0661,0.66146 0.0661,0.99219 0,0.49609 -0.30868,0.80477 -0.29766,0.30868 -0.7717,0.30868 -0.48507,0 -0.78273,-0.30868 -0.29766,-0.30868 -0.29766,-0.80477 0,-0.33073 -0.0772,-0.99219 -0.0661,-0.66146 -0.0661,-0.99219 0,-1.13551 0.15434,-3.14193 0.16536,-2.01745 0.16536,-3.15296 0,-0.35277 -0.0441,-1.04731 -0.0331,-0.69453 -0.0331,-1.04731 0,-0.47404 0.30868,-0.7717 0.31971,-0.30868 0.78273,-0.30868 1.01424,0 1.11346,1.43316 l 0.0331,1.28985 q 1.85208,-2.46945 3.80339,-2.46945 1.76389,0 2.45842,1.55443 0.47405,1.03628 0.51814,3.06476 v 1.11345 l -0.011,1.02527 q 0,0.91501 0.23151,2.37022 0.24253,1.44419 0.24253,2.34818 0,0.48507 -0.3197,0.78273 -0.30868,0.30868 -0.78273,0.30868 z"
         id="path548" />
    </g>
    <g
       aria-label="artis pls ficks :^)"
       id="text510"
       style="font-size:4.58611px;line-height:0.59715px;font-family:'Comic Sans MS';-inkscape-font-specification:'Comic Sans MS';text-align:center;letter-spacing:0px;word-spacing:0px;text-anchor:middle;fill:none;stroke:#000000;stroke-width:0.264583px">
      <path
         d="m 150.76374,149.97137 q -0.0425,0 -0.15451,-0.0985 -0.10077,-0.0918 -0.15003,-0.16347 -0.21498,0.11645 -0.37845,0.17467 -0.16347,0.0605 -0.27319,0.0605 -0.524,0 -0.76361,-0.29559 -0.22617,-0.27767 -0.22617,-0.85094 0,-0.54191 0.37173,-0.92707 0.37396,-0.38516 0.89124,-0.38516 0.19482,0 0.43667,0.10077 0.30455,0.1254 0.30455,0.3023 0,0.0605 -0.0448,0.10749 -0.0224,0.0851 -0.0358,0.27991 -0.0112,0.19482 -0.0134,0.49937 -0.002,0.27767 0.0381,0.43891 0.0224,0.0985 0.14108,0.39411 0.0157,0.0403 0.0515,0.11869 l 0.0134,0.0381 q 0,0.0896 -0.0627,0.14779 -0.0627,0.0582 -0.14556,0.0582 z m -0.46577,-1.55632 q 0,-0.0963 0.0112,-0.20826 0.0134,-0.1142 0.0381,-0.24184 -0.0829,-0.0425 -0.14331,-0.0627 -0.0582,-0.0202 -0.0941,-0.0202 -0.34709,0 -0.60013,0.2844 -0.2508,0.28215 -0.2508,0.65164 0,0.36724 0.12988,0.55087 0.12988,0.18362 0.38964,0.18362 0.21497,0 0.365,-0.0784 0.0806,-0.0426 0.22618,-0.17019 -0.0717,-0.59342 -0.0717,-0.88901 z"
         style="fill:#00ff00;stroke:none"
         id="path551" />
      <path
         d="m 153.10382,148.16873 q -0.0157,0.27991 -0.22393,0.27991 -0.19258,0 -0.19258,-0.22169 0,-0.0425 -0.007,-0.15675 l -0.007,-0.18811 q -0.35381,0.0426 -0.56655,0.1993 -0.1993,0.14556 -0.33142,0.43891 l 0.004,1.22714 q 0,0.22617 -0.22169,0.22617 -0.19706,0 -0.19706,-0.22617 v -1.572 q 0,-0.0739 0.004,-0.22169 0.007,-0.14779 0.007,-0.22169 0,-0.22617 0.19706,-0.22617 0.21945,0 0.22169,0.37173 0.42995,-0.41428 0.95394,-0.41428 0.18139,0 0.27096,0.1366 0.0896,0.1366 0.0896,0.41203 0,0.11645 -0.002,0.15676 z"
         style="fill:#00ff00;stroke:none"
         id="path553" />
      <path
         d="m 155.06322,147.91568 q -0.047,0 -0.11196,-0.004 -0.0627,-0.004 -0.10973,-0.004 -0.0515,0 -0.30455,0.0336 l 0.0426,1.32343 0.002,0.0985 0.002,0.1142 q 0.009,0.49041 -0.23513,0.49041 -0.0896,0 -0.15675,-0.0582 -0.0649,-0.0582 -0.0649,-0.14555 0,-0.0851 0.007,-0.25529 0.007,-0.17018 0.007,-0.25528 l -0.0448,-1.30775 q -0.16347,-0.007 -0.49713,-0.0381 -0.1993,-0.0269 -0.1993,-0.22169 0,-0.0985 0.0605,-0.16347 0.0605,-0.0649 0.15452,-0.0649 l 0.47025,0.0381 q 0,-0.1142 -0.0112,-0.30454 -0.009,-0.19258 -0.009,-0.27768 0,-0.0941 0.0649,-0.15451 0.0649,-0.0627 0.15899,-0.0627 0.20154,0 0.23513,0.32918 0.007,0.0829 0.007,0.1993 l -0.004,0.12988 -0.002,0.13883 q 0.27767,-0.0358 0.31798,-0.0358 0.23289,0 0.30455,0.0224 0.13659,0.0448 0.13659,0.21049 0,0.0985 -0.0627,0.16347 -0.0605,0.0627 -0.15675,0.0627 z"
         style="fill:#00ff00;stroke:none"
         id="path555" />
      <path
         d="m 156.15377,146.98861 q -0.10749,0 -0.18587,-0.0761 -0.0784,-0.0761 -0.0784,-0.18362 0,-0.10749 0.0784,-0.18362 0.0784,-0.0761 0.18587,-0.0761 0.10748,0 0.18362,0.0761 0.0784,0.0761 0.0784,0.18362 0,0.10749 -0.0784,0.18362 -0.0761,0.0761 -0.18362,0.0761 z m 0.10077,1.81832 q 0,0.13436 0.007,0.40308 0.009,0.26647 0.009,0.40083 0,0.0985 -0.0605,0.16123 -0.0605,0.0627 -0.15899,0.0627 -0.0963,0 -0.15899,-0.0627 -0.0605,-0.0627 -0.0605,-0.16123 0,-0.13436 -0.009,-0.40083 -0.007,-0.26872 -0.007,-0.40308 0,-0.21049 0.0224,-0.524 0.0224,-0.31574 0.0224,-0.52624 0,-0.10077 0.0605,-0.16347 0.0627,-0.0627 0.15899,-0.0627 0.0963,0 0.15675,0.0627 0.0627,0.0627 0.0627,0.16347 0,0.2105 -0.0224,0.52624 -0.0224,0.31351 -0.0224,0.524 z"
         style="fill:#00ff00;stroke:none"
         id="path557" />
      <path
         d="m 158.52296,148.09931 q -0.12316,0 -0.17243,-0.0829 -0.0336,-0.0582 -0.0582,-0.24184 -0.16795,0.0425 -0.51728,0.15675 -0.36053,0.14332 -0.36277,0.35381 0.0672,0.0246 0.13212,0.0358 0.51504,0.0918 0.76584,0.25304 0.36501,0.23513 0.36501,0.68075 0,0.36501 -0.31574,0.55087 -0.262,0.15228 -0.66284,0.15228 -0.29335,0 -0.55983,-0.0985 -0.34485,-0.1254 -0.34485,-0.34934 0,-0.0896 0.0694,-0.15675 0.0717,-0.0672 0.16123,-0.0672 0.0694,0 0.17914,0.10749 0.0537,0.0515 0.24185,0.0851 0.15003,0.0269 0.25304,0.0269 0.1881,0 0.33142,-0.0448 0.20826,-0.0649 0.20826,-0.20602 0,-0.30454 -0.42547,-0.41203 l -0.23289,-0.0515 q -0.29783,-0.0649 -0.42323,-0.15228 -0.18139,-0.1254 -0.18139,-0.37844 0,-0.46802 0.44115,-0.66732 0.13436,-0.0605 0.42995,-0.14331 0.29559,-0.0851 0.42323,-0.14332 0.0918,-0.0403 0.1993,-0.0403 0.0963,0 0.15675,0.0627 0.0627,0.0627 0.0627,0.16347 0,0.0649 0.0269,0.19035 0.0291,0.1254 0.0291,0.19034 0,0.10077 -0.0627,0.16347 -0.0605,0.0627 -0.15675,0.0627 z"
         style="fill:#00ff00;stroke:none"
         id="path559" />
      <path
         d="m 161.56618,149.90195 q -0.22393,0 -0.49265,-0.0717 l -0.004,1.07039 q 0,0.0985 -0.0627,0.16123 -0.0605,0.0627 -0.15676,0.0627 -0.0963,0 -0.15899,-0.0627 -0.0605,-0.0627 -0.0605,-0.16123 l 0.007,-0.89573 v -0.89348 q -0.007,-0.49041 -0.0336,-0.89349 l -0.0336,-0.45458 q 0,-0.15899 0.0582,-0.26872 0.0672,-0.13212 0.19482,-0.13212 0.0873,0 0.14556,0.0627 0.0605,0.0605 0.0605,0.15003 0,0.0202 -0.007,0.0739 -0.0112,0.0694 -0.0157,0.12764 0.19258,-0.13212 0.37172,-0.19706 0.17915,-0.0672 0.34262,-0.0672 0.45905,0 0.67179,0.40755 0.16795,0.32246 0.16795,0.85318 0,0.48369 -0.25976,0.7972 -0.27544,0.33141 -0.7345,0.33141 z m 0.15452,-1.94148 q -0.20602,0 -0.37173,0.0918 -0.11868,0.0649 -0.30007,0.23737 0.0291,0.50832 0.0291,1.06815 0.24409,0.0941 0.48817,0.0941 0.27992,0 0.42771,-0.20825 0.12764,-0.18139 0.12764,-0.47026 0,-0.40755 -0.10077,-0.60909 -0.0985,-0.20378 -0.30006,-0.20378 z"
         style="fill:#00ff00;stroke:none"
         id="path561" />
      <path
         d="m 163.63531,148.06348 -0.0336,1.11294 q 0,0.1769 -0.0179,0.51952 -0.0224,0.22393 -0.21945,0.22393 -0.21945,0 -0.21945,-0.22841 0,-0.27096 0.0246,-0.81287 0.0246,-0.54415 0.0246,-0.81511 0,-0.35381 0.0112,-0.80839 0.0112,-0.45682 0.0112,-0.81063 0,-0.22393 0.21945,-0.22393 0.22169,0 0.22169,0.22393 0,0.35381 -0.0112,0.81063 -0.0112,0.45458 -0.0112,0.80839 z"
         style="fill:#00ff00;stroke:none"
         id="path563" />
      <path
         d="m 165.83431,148.09931 q -0.12316,0 -0.17243,-0.0829 -0.0336,-0.0582 -0.0582,-0.24184 -0.16795,0.0425 -0.51728,0.15675 -0.36053,0.14332 -0.36277,0.35381 0.0672,0.0246 0.13212,0.0358 0.51504,0.0918 0.76585,0.25304 0.365,0.23513 0.365,0.68075 0,0.36501 -0.31574,0.55087 -0.262,0.15228 -0.66284,0.15228 -0.29335,0 -0.55982,-0.0985 -0.34486,-0.1254 -0.34486,-0.34934 0,-0.0896 0.0694,-0.15675 0.0717,-0.0672 0.16123,-0.0672 0.0694,0 0.17915,0.10749 0.0537,0.0515 0.24184,0.0851 0.15004,0.0269 0.25304,0.0269 0.18811,0 0.33142,-0.0448 0.20826,-0.0649 0.20826,-0.20602 0,-0.30454 -0.42547,-0.41203 l -0.23289,-0.0515 q -0.29783,-0.0649 -0.42323,-0.15228 -0.18138,-0.1254 -0.18138,-0.37844 0,-0.46802 0.44114,-0.66732 0.13436,-0.0605 0.42995,-0.14331 0.29559,-0.0851 0.42323,-0.14332 0.0918,-0.0403 0.1993,-0.0403 0.0963,0 0.15675,0.0627 0.0627,0.0627 0.0627,0.16347 0,0.0649 0.0269,0.19035 0.0291,0.1254 0.0291,0.19034 0,0.10077 -0.0627,0.16347 -0.0605,0.0627 -0.15675,0.0627 z"
         style="fill:#00ff00;stroke:none"
         id="path565" />
      <path
         d="m 169.43064,146.67511 q -0.54191,0 -0.60685,0.7524 l -0.007,0.13884 q 0.38069,-0.0269 0.49265,-0.0269 0.35605,0 0.35605,0.22393 0,0.16347 -0.17466,0.19482 -0.0761,0.0134 -0.17915,0.0112 -0.10077,-0.004 -0.51504,0.0291 l -0.0179,0.51056 q 0,0.13884 0.009,0.41651 0.009,0.27768 0.009,0.41428 0,0.42547 -0.0493,0.66283 -0.0381,0.17915 -0.20825,0.17915 -0.0918,0 -0.15675,-0.0605 -0.0649,-0.0582 -0.0649,-0.1478 0,-0.0179 0.004,-0.0448 0.047,-0.29111 0.047,-0.63373 l -0.007,-0.61133 v -0.6494 q -0.27991,0.0224 -0.35381,0.0224 -0.22617,0 -0.22617,-0.21721 0,-0.22169 0.39188,-0.23289 l 0.21498,-0.007 q 0.007,-0.1254 0.0336,-0.34037 0.0582,-0.49713 0.25081,-0.73226 0.23289,-0.28439 0.72777,-0.28439 0.32023,0 0.32023,0.21721 0,0.21498 -0.29112,0.21498 z"
         style="fill:#00ff00;stroke:none"
         id="path567" />
      <path
         d="m 170.68466,146.98861 q -0.10749,0 -0.18586,-0.0761 -0.0784,-0.0761 -0.0784,-0.18362 0,-0.10749 0.0784,-0.18362 0.0784,-0.0761 0.18586,-0.0761 0.10749,0 0.18362,0.0761 0.0784,0.0761 0.0784,0.18362 0,0.10749 -0.0784,0.18362 -0.0761,0.0761 -0.18362,0.0761 z m 0.10077,1.81832 q 0,0.13436 0.007,0.40308 0.009,0.26647 0.009,0.40083 0,0.0985 -0.0605,0.16123 -0.0605,0.0627 -0.15899,0.0627 -0.0963,0 -0.15899,-0.0627 -0.0605,-0.0627 -0.0605,-0.16123 0,-0.13436 -0.009,-0.40083 -0.007,-0.26872 -0.007,-0.40308 0,-0.21049 0.0224,-0.524 0.0224,-0.31574 0.0224,-0.52624 0,-0.10077 0.0605,-0.16347 0.0627,-0.0627 0.15899,-0.0627 0.0963,0 0.15675,0.0627 0.0627,0.0627 0.0627,0.16347 0,0.2105 -0.0224,0.52624 -0.0224,0.31351 -0.0224,0.524 z"
         style="fill:#00ff00;stroke:none"
         id="path569" />
      <path
         d="m 172.55448,149.96465 q -0.45906,0 -0.76584,-0.27767 -0.32246,-0.29111 -0.32246,-0.76808 0,-0.45458 0.30231,-0.93828 0.33589,-0.53743 0.75688,-0.53743 0.21946,0 0.49041,0.10301 0.34262,0.13212 0.34262,0.32246 0,0.0851 -0.056,0.15227 -0.056,0.0649 -0.13883,0.0649 -0.0649,0 -0.11421,-0.0381 -0.047,-0.0403 -0.0918,-0.0784 -0.13212,-0.10525 -0.43219,-0.10525 -0.22841,0 -0.45234,0.40755 -0.20378,0.37397 -0.20378,0.64717 0,0.29559 0.20154,0.46577 0.1881,0.15899 0.48369,0.15899 0.13436,0 0.28664,-0.0716 l 0.25976,-0.13884 q 0.0672,-0.0358 0.0963,-0.0358 0.0829,0 0.14331,0.0672 0.0605,0.0649 0.0605,0.15003 0,0.16347 -0.34485,0.31575 -0.30231,0.13435 -0.50161,0.13435 z"
         style="fill:#00ff00;stroke:none"
         id="path571" />
      <path
         d="m 175.76342,149.91539 q -0.12316,0 -0.19034,-0.12988 -0.11645,-0.22617 -0.35158,-0.5352 l -0.39635,-0.53967 q -0.12988,0.10301 -0.40308,0.28887 -0.0246,0.34709 -0.0246,0.67627 0,0.10077 -0.0627,0.16347 -0.0605,0.0627 -0.15675,0.0627 -0.22617,0 -0.22617,-0.30454 0,-0.18587 0.0246,-0.55535 0.0269,-0.37173 0.0269,-0.55759 0,-0.34038 0.009,-0.77704 0.0112,-0.43891 0.0112,-0.7748 0,-0.10077 -0.0112,-0.23737 -0.009,-0.1366 -0.009,-0.23737 0,-0.10077 0.0605,-0.16347 0.0627,-0.0627 0.15899,-0.0627 0.0963,0 0.15675,0.0627 0.0627,0.0627 0.0627,0.16347 0,0.10301 0.0112,0.24409 0.0112,0.13883 0.0112,0.24184 l -0.0157,0.72106 q -0.0112,0.38964 -0.007,0.77928 0.30455,-0.23289 0.5867,-0.51056 l 0.49265,-0.50832 q 0.0739,-0.0761 0.15899,-0.0761 0.0873,0 0.15676,0.0694 0.0717,0.0694 0.0717,0.16123 0,0.0761 -0.0649,0.15003 -0.27543,0.32246 -0.67851,0.69195 l 0.48817,0.66507 q 0.34262,0.46802 0.34262,0.6091 0,0.0896 -0.0717,0.15451 -0.0694,0.0649 -0.16123,0.0649 z"
         style="fill:#00ff00;stroke:none"
         id="path573" />
      <path
         d="m 177.88629,148.09931 q -0.12317,0 -0.17243,-0.0829 -0.0336,-0.0582 -0.0582,-0.24184 -0.16795,0.0425 -0.51728,0.15675 -0.36053,0.14332 -0.36277,0.35381 0.0672,0.0246 0.13212,0.0358 0.51504,0.0918 0.76584,0.25304 0.36501,0.23513 0.36501,0.68075 0,0.36501 -0.31574,0.55087 -0.262,0.15228 -0.66284,0.15228 -0.29335,0 -0.55983,-0.0985 -0.34485,-0.1254 -0.34485,-0.34934 0,-0.0896 0.0694,-0.15675 0.0717,-0.0672 0.16123,-0.0672 0.0694,0 0.17914,0.10749 0.0538,0.0515 0.24185,0.0851 0.15003,0.0269 0.25304,0.0269 0.1881,0 0.33142,-0.0448 0.20825,-0.0649 0.20825,-0.20602 0,-0.30454 -0.42547,-0.41203 l -0.23288,-0.0515 q -0.29783,-0.0649 -0.42323,-0.15228 -0.18139,-0.1254 -0.18139,-0.37844 0,-0.46802 0.44115,-0.66732 0.13436,-0.0605 0.42994,-0.14331 0.29559,-0.0851 0.42323,-0.14332 0.0918,-0.0403 0.1993,-0.0403 0.0963,0 0.15675,0.0627 0.0627,0.0627 0.0627,0.16347 0,0.0649 0.0269,0.19035 0.0291,0.1254 0.0291,0.19034 0,0.10077 -0.0627,0.16347 -0.0605,0.0627 -0.15675,0.0627 z"
         style="fill:#00ff00;stroke:none"
         id="path575" />
      <path
         d="m 180.59361,149.31749 q 0,0.10077 -0.0649,0.16571 -0.0649,0.0649 -0.16571,0.0649 -0.10076,0 -0.16347,-0.0649 -0.0649,-0.0649 -0.0649,-0.16571 0,-0.0425 -0.0157,-0.12316 -0.0134,-0.0829 -0.0134,-0.12316 0,-0.094 0.0694,-0.15675 0.0717,-0.0627 0.16795,-0.0627 0.2508,0 0.2508,0.46577 z m -0.0381,-1.63469 q 0,0.10077 -0.0649,0.16571 -0.0627,0.0649 -0.16347,0.0649 -0.10077,0 -0.16571,-0.0649 -0.0649,-0.0649 -0.0649,-0.16571 0,-0.0269 -0.0112,-0.0806 -0.009,-0.056 -0.009,-0.0851 0,-0.0963 0.0672,-0.15899 0.0672,-0.0627 0.16571,-0.0627 0.24633,0 0.24633,0.3874 z"
         style="fill:#00ff00;stroke:none"
         id="path577" />
      <path
         d="m 182.36715,146.13767 q 0.12316,0 0.29559,0.15227 0.0537,0.047 0.24632,0.24857 l 0.35381,0.38068 q 0.0605,0.0672 0.0605,0.1366 0,0.0829 -0.0627,0.14555 -0.0627,0.0605 -0.14331,0.0605 -0.0739,0 -0.14108,-0.0649 -0.17914,-0.20154 -0.56207,-0.58223 -0.56878,0.69643 -0.73001,0.69643 -0.0806,0 -0.14332,-0.0627 -0.0605,-0.0627 -0.0605,-0.14332 0,-0.0784 0.0694,-0.14331 0.12316,-0.12093 0.68075,-0.75465 0.0605,-0.0694 0.1366,-0.0694 z"
         style="fill:#00ff00;stroke:none"
         id="path579" />
      <path
         d="m 185.26034,148.52254 q 0,1.6862 -0.94947,2.21692 -0.0918,0.0515 -0.15899,0.0515 -0.0761,0 -0.13436,-0.056 -0.0582,-0.0538 -0.0582,-0.12764 0,-0.10077 0.12988,-0.20378 0.10301,-0.0806 0.20825,-0.16123 0.51505,-0.53072 0.51505,-1.66829 0,-0.44114 -0.12317,-0.89796 -0.14331,-0.524 -0.38964,-0.80615 -0.10301,-0.10301 -0.20377,-0.20602 -0.13884,-0.15003 -0.13884,-0.22841 0,-0.0806 0.0582,-0.14332 0.0605,-0.0649 0.14108,-0.0649 0.0515,0 0.14331,0.0627 0.44339,0.31127 0.71658,1.00322 0.24409,0.62252 0.24409,1.22938 z"
         style="fill:#00ff00;stroke:none"
         id="path581" />
    </g>
  </g>
</svg>
